<svg width="100" height="59" viewBox="0 0 100 59" fill="none" xmlns="http://www.w3.org/2000/svg">
<path d="M29.0527 55.8428L29.3115 56.1016L29.5703 56.5146L29.6738 57.083V57.3408L29.6221 57.3926H27.4473L27.6543 57.9609L27.9648 58.2188L28.1201 58.2705H28.8457L29.2598 58.0645H29.4668L29.415 58.4258L29.208 58.6318L28.9492 58.7354L28.2236 58.7871L27.6025 58.6836L27.2402 58.4775L26.9297 58.0127L26.7734 57.4961V56.9795L26.9297 56.4629L27.292 56.0498L27.5508 55.8428L28.0166 55.6885H28.5859L29.0527 55.8428ZM42.2061 54.6035L42.3096 54.707L42.3613 55.4297L42.2578 55.4814L41.585 55.3262H40.6523L40.1348 55.585L39.876 55.8945L39.7207 56.4111V57.0312L39.876 57.4443L40.1348 57.7539L40.3936 57.9092L40.6006 57.9609H41.3779L41.5332 57.8574V57.2373L41.4814 57.1338L40.7041 57.083L40.6523 57.0312V56.4111L40.7041 56.3594H42.2578L42.5684 56.4111V58.0635L42.5166 58.4775L42.1025 58.6318L41.6885 58.7354L40.8076 58.7871L40.0312 58.6836L39.5137 58.4775L39.0986 58.1152L38.7881 57.5986L38.6328 57.1338V56.2559L38.8398 55.6885L39.1504 55.2236L39.5654 54.8613L40.1348 54.6035L40.5488 54.5H41.7402L42.2061 54.6035ZM58.1045 54.6035L58.208 54.7588V55.4297L57.7422 55.3779L57.4316 55.3262H56.9658L56.4473 55.4814L56.2402 55.6367H56.1367L56.0332 55.8428L55.8779 56.2051L55.8262 56.8242L55.9814 57.3408L56.2402 57.7021L56.6025 57.9092L56.8613 57.9609H57.5352L58.1562 57.7539L58.208 57.8057V58.4775L58.1045 58.6318L57.7939 58.7354L57.2764 58.7871H56.7061L56.0332 58.6836L55.5156 58.4258L55.1006 58.0127L54.8418 57.4961L54.7383 57.1338V56.3076L54.9453 55.6885L55.2568 55.2236L55.7227 54.8105L56.3438 54.5518L56.6543 54.5H57.7939L58.1045 54.6035ZM25.9971 58.6318L25.9453 58.7354H25.4795L25.376 58.6836L25.2725 58.3223L24.8057 58.6836L24.6504 58.7354H23.8223L23.4082 58.5283L23.0967 58.1152L22.9414 57.5986V56.9277L23.0967 56.4111L23.4082 55.998L23.874 55.7393L24.1328 55.6885H24.6504L25.0654 55.8945L25.2725 56.0498L25.3242 54.3447H25.9971V58.6318ZM32.833 54.3965V58.6836L32.7812 58.7354H32.1592L32.1074 58.6836V54.3447H32.7812L32.833 54.3965ZM35.8369 55.8945L36.0957 56.2051L36.1992 56.5664V58.5801L36.1475 58.7354H35.6299L35.5771 58.374L35.3184 58.5293L34.9561 58.7354H34.1279L33.7646 58.5293L33.5576 58.167V57.6504L33.7129 57.3408L33.9727 57.1348L34.4385 56.9795L35.5254 56.8242L35.3701 56.3594L35.1631 56.2051H34.749L34.2832 56.3076L33.9727 56.4629H33.8164V56.0498L34.0762 55.8428L34.6455 55.6885H35.4219L35.8369 55.8945ZM45.417 55.7402L45.4688 56.2051L45.417 56.5664H44.7441L44.4844 56.7217L44.3809 56.9795L44.3291 57.2891L44.2773 58.6836L44.2256 58.7354H43.4492L43.3457 58.6318V55.792L43.3975 55.7402H44.3291V56.0498L44.5889 55.998L44.6924 55.792L45.1064 55.6885L45.417 55.7402ZM48.0059 55.8428L48.2646 56.1016L48.4209 56.3076L48.4727 56.4629L48.5244 57.0312V58.6318L48.4209 58.7354H47.7471L47.54 58.5293V58.4258L47.1777 58.7354H46.1934L45.8828 58.5293L45.6758 58.2188L45.624 57.7539L45.7793 57.3926L46.0381 57.1348L46.5039 56.9277L47.54 56.7725L47.4883 56.5146L47.333 56.3594H46.7119L46.1416 56.5664L45.9346 56.5146V55.9463L45.9863 55.8428L46.7637 55.6885H47.5918L48.0059 55.8428ZM51.9932 55.8428L52.2529 56.1533L52.4082 56.7217V58.6836L52.3047 58.7354H51.4238L51.3203 56.7725L51.2168 56.5146L51.0098 56.4111L50.5957 56.4629L50.3369 56.7725L50.2852 58.6318L50.2324 58.6836H49.3525L49.3008 58.6318V55.792L49.3525 55.7402H50.2852L50.3369 56.0498L50.6475 55.8428L51.0615 55.6885H51.6309L51.9932 55.8428ZM61.0049 55.8428L61.3672 56.1533L61.4707 56.3594L61.5225 56.6699V58.6836L61.4707 58.7354H60.7461L60.6426 58.4775L60.4346 58.5293L60.124 58.7354H59.2441L58.9854 58.5801L58.7773 58.3223L58.7256 58.167V57.5479L58.9336 57.2373L59.2441 57.0312L59.8135 56.876L60.5898 56.7725L60.5381 56.5146L60.2793 56.3076L59.71 56.3594L59.1924 56.5146H58.9854V55.998L59.2441 55.792L59.71 55.6885H60.5898L61.0049 55.8428ZM67.0635 55.8945L67.3223 56.1533L67.4775 56.4629L67.5293 56.7725V58.6318L67.4258 58.7354H66.7012L66.5459 58.4775L66.3389 58.5801L66.1318 58.7354H65.1992L64.8887 58.5293L64.6816 58.2188L64.6299 57.8574L64.7334 57.4443L64.9404 57.1855L65.3545 56.9795L66.1836 56.8242L66.5459 56.7725L66.4941 56.5146L66.1836 56.3076L65.5615 56.4111L65.1475 56.5664H64.9922L64.9404 56.4629V55.998L65.1475 55.792L65.7168 55.6885H66.5459L67.0635 55.8945ZM70.6895 55.792L70.7412 56.0498V56.5146L70.6377 56.5664L70.4297 56.4629H69.6533L69.3428 56.6699L69.1875 56.9277L69.1357 57.3926L69.291 57.8057L69.5498 58.0127L69.8604 58.1152L70.2744 58.0645L70.5332 57.9609H70.6895L70.7412 58.2188L70.6895 58.5801L70.4297 58.7354H69.2393L68.8242 58.5801L68.4619 58.2705L68.2031 57.8057L68.1514 57.5996V56.9277L68.3066 56.4629L68.7725 55.9463L69.1875 55.7402L69.3945 55.6885H70.4814L70.6895 55.792ZM73.4854 55.8428L73.7441 56.0498L73.9512 56.4111L74.0029 56.6182V58.6836L73.8994 58.7354H73.2266L72.916 58.4258L72.8115 58.6318L72.6045 58.7354H71.6729L71.3623 58.5293L71.207 58.2705L71.1553 58.0645V57.5996L71.3623 57.2373L71.7246 57.0312L72.3457 56.876L73.0195 56.7725L72.9678 56.4629L72.8115 56.3594H72.2422L71.5693 56.5664H71.4658L71.4141 56.0498L71.5176 55.8428L72.2939 55.6885H73.0713L73.4854 55.8428ZM76.7998 55.792L76.8516 56.3594L76.6963 56.4629L76.334 56.3594H75.7637L75.6084 56.4111L75.6602 56.7217L76.6445 57.1348L77.0068 57.5479V58.1152L76.6963 58.5293L76.3857 58.6836L76.126 58.7354H74.7803L74.5732 58.5293V58.0127L74.6768 57.9609L74.9873 58.1152L75.2461 58.167H75.8154L76.0225 58.0645V57.8057L74.8838 57.2373L74.625 56.9277V56.3594L74.832 56.0498L75.0908 55.8428L75.5049 55.6885H76.4375L76.7998 55.792ZM64.4229 55.7402V56.5664H63.6973L63.4385 56.8242L63.335 57.1348L63.2832 58.6836H62.3516V55.792L62.4033 55.7402H63.2832L63.335 56.0498L63.6973 55.8428L63.8008 55.7402L64.0596 55.6885L64.4229 55.7402ZM34.3867 57.4443L34.1797 57.6504L34.2314 58.0645L34.4902 58.3223L34.8008 58.374L35.3184 58.1152L35.5254 57.8057L35.5771 57.6504V57.2891H35.0596L34.3867 57.4443ZM23.9258 56.4111L23.7188 56.6689L23.6152 57.0312V57.5986L23.8223 58.0117L24.1846 58.2705L24.5986 58.3223L25.0127 58.1152L25.2725 57.8057L25.376 57.2891L25.3242 56.7207L24.9609 56.3076L24.7539 56.2041H24.2881L23.9258 56.4111ZM59.7617 57.4443L59.5547 57.5996V57.9609L59.7617 58.167L60.124 58.2188L60.4346 58.0645L60.5898 57.8574L60.6426 57.3926L60.5898 57.3408H60.2275L59.7617 57.4443ZM46.6602 57.4961L46.5557 57.5996V58.0127L46.7119 58.167H47.2812L47.54 57.9092L47.5918 57.7539V57.3926L47.54 57.3408H47.126L46.6602 57.4961ZM65.7168 57.4443L65.5615 57.5996V58.0127L65.7168 58.167H66.1836L66.4424 58.0127L66.5977 57.7539V57.3926L66.5459 57.3408H66.1836L65.7168 57.4443ZM72.2939 57.3926L72.0352 57.7021L72.0869 58.0645L72.1904 58.167H72.708L73.0195 57.9092L73.123 57.7021V57.3926L72.9678 57.2891H72.8115L72.2939 57.3926ZM27.8096 56.3076L27.499 56.6699V56.9795H28.8975L28.9492 56.9277L28.8975 56.5146L28.6387 56.2051L28.5342 56.1533H28.1201L27.8096 56.3076ZM72.2422 49.749L72.5527 50.1621L72.709 50.627V51.3496L72.5527 51.8662L72.2422 52.2793L71.9834 52.4863L71.6211 52.5898H70.9482L70.5332 52.3828L70.3779 52.2275L70.3262 53.8809L69.9121 53.9326L69.6533 53.8809V49.5938H70.2227L70.3262 49.6455L70.3779 50.0068L70.7402 49.6973L71.1553 49.542H71.7764L72.2422 49.749ZM15.2256 49.749L15.4844 50.0586L15.6914 50.5234L15.7432 51.1953L15.6914 51.2471H13.5684L13.6201 51.6602L13.8789 51.9697L14.3447 52.125H14.7588L15.2256 51.9697L15.4844 51.8662L15.5361 51.918L15.4844 52.2793L15.2773 52.4863L14.9141 52.5898H13.9307L13.4648 52.4346L13.1016 52.0732L12.8945 51.6084L12.8428 51.4014V50.7305L13.1016 50.1104L13.4648 49.749L13.9307 49.542H14.707L15.2256 49.749ZM20.7148 49.6455V50.2139L20.4551 50.1104L20.2998 50.0586H19.627L19.3682 50.2139L19.3164 50.4199L19.5752 50.6787L20.3516 50.9883L20.7666 51.2979L20.8701 51.5049V51.918L20.7148 52.1758L20.3516 52.4863L19.9893 52.5898H19.0059L18.6426 52.4863V51.918L18.8506 51.9697L19.2129 52.125H19.7822L20.0928 51.9697L20.1963 51.7119L19.9375 51.5049L19.1611 51.1436L18.7988 50.8848L18.6426 50.5234L18.7461 50.0068L19.1611 49.6455L19.4717 49.542H20.4551L20.7148 49.6455ZM29.1562 49.749L29.415 50.0586L29.4668 50.2656V52.5381H28.8965L28.8447 52.1758L28.3789 52.5381L28.2236 52.5898H27.4473L27.1357 52.3828L26.9287 52.125L26.877 52.0215V51.4531L27.084 51.0918L27.4473 50.8848L28.1201 50.7305L28.6895 50.6787L28.8447 50.627L28.7412 50.3174L28.4824 50.0586H27.8613L27.3438 50.2656L27.1357 50.3174V49.9033L27.3438 49.6973L27.8613 49.542H28.6895L29.1562 49.749ZM42.9834 49.749L43.2422 50.1621L43.2939 50.3682L43.3457 52.4863L43.2939 52.5381H42.7246L42.6201 52.1758L42.1543 52.5381L42.0508 52.5898H41.2744L40.8594 52.3311L40.6523 51.918V51.5566L40.8076 51.1953L41.1191 50.9365L41.8955 50.7305L42.6719 50.627L42.5166 50.2656L42.3096 50.0586L41.8955 50.0068L41.2227 50.2139L40.9111 50.3174V49.9551L41.1191 49.6973L41.6885 49.542H42.5166L42.9834 49.749ZM46.5039 49.6455L46.5557 50.0586L46.5039 50.2656L46.1934 50.1621L45.6758 50.0586L45.21 50.2139L44.9512 50.4717L44.7949 50.833V51.4531L44.9512 51.7627L45.21 51.9697L45.417 52.0732H45.9863L46.4004 51.8662H46.5039L46.5557 52.2275L46.4004 52.4863L46.0898 52.5898H45.1582L44.6914 52.4346L44.3809 52.1758L44.1221 51.7627L44.0186 51.4531V50.833L44.2256 50.2656L44.5879 49.8525L44.8994 49.6455L45.3135 49.542H46.2451L46.5039 49.6455ZM51.2686 49.6973L51.5791 49.9551L51.8906 50.5752V51.5566L51.6309 52.0732L51.165 52.4863L50.8027 52.5898H49.8184L49.3525 52.4346L48.9902 52.125L48.7314 51.6602L48.6797 51.4531V50.7305L48.8867 50.1621L49.249 49.8008L49.6631 49.5938L49.8701 49.542H50.751L51.2686 49.6973ZM58.415 49.6973L58.7266 50.0586L58.8301 50.4199V52.4863L58.7783 52.5381H58.2598L58.1562 52.3828V52.1758L57.6904 52.5381L57.5352 52.5898H56.7578L56.4473 52.3828L56.2402 52.125L56.1885 52.0215V51.4014L56.3955 51.0918L56.7578 50.8848L57.4316 50.7305L58.001 50.6787L58.1562 50.5752L57.9492 50.1621L57.7939 50.0586H57.1729L56.5508 50.3174L56.3955 50.2656L56.4473 49.9033L56.6543 49.6973L57.1729 49.542H58.001L58.415 49.6973ZM66.96 49.6455L67.375 50.3682L67.5303 50.6787L67.6855 50.627L68.1514 49.8008L68.3584 49.5938H69.084L68.9795 49.8008L68.5654 50.3682L68.0996 51.04L68.1514 51.2461L68.8242 52.1758L69.0322 52.4346V52.5898L68.3066 52.5381L68.0996 52.3311L67.6338 51.5566L67.4785 51.5049L67.2715 51.918L66.9082 52.4863L66.8564 52.5381H66.0801L66.2354 52.2793L67.0117 51.1953L66.96 50.9365L66.5459 50.3174L66.1836 49.8008L66.0801 49.5938H66.8047L66.96 49.6455ZM75.6602 49.749L75.9189 50.0586L76.126 50.627L76.1777 51.1436L76.126 51.2471H74.0547L74.1064 51.7119L74.3135 51.9697L74.7275 52.125H75.2461L75.6602 51.9697L75.9189 51.918L75.9707 52.1758L75.8154 52.4346L75.3496 52.5898H74.3135L73.8994 52.4346L73.5371 52.0732L73.2783 51.4531V50.7822L73.4854 50.2139L73.8477 49.8008L74.21 49.5938L74.417 49.542H75.0908L75.6602 49.749ZM88.7627 49.8008L89.0732 50.2139L89.2285 50.833V51.1953L89.1768 51.2471H87.002L87.1572 51.7119L87.416 51.9697L87.7783 52.125H88.2959L88.7109 51.9697L88.9697 51.8662L89.0215 52.125L88.8662 52.3828L88.6592 52.5381L88.3994 52.5898H87.416L86.9502 52.4346L86.6904 52.2275L86.4316 51.7627L86.3281 51.3496V50.8848L86.4834 50.3174L86.7939 49.9033L87.2607 49.5938L87.4678 49.542H88.2441L88.7627 49.8008ZM98.0322 49.749L98.2393 50.0068L98.3428 50.2656L98.3945 50.627V52.4863L98.3428 52.5381H97.8252L97.7217 52.4863L97.6699 52.2275L97.3584 52.4863L97.0479 52.5898H96.2197L95.8574 52.2793L95.7021 51.8145L95.8057 51.2979L96.0645 50.9883L96.6855 50.7822L97.6699 50.627L97.6182 50.3682L97.4629 50.1104L97.2549 50.0068H96.8926L96.375 50.1621L96.1162 50.3174L95.9609 50.2656L96.0127 49.8008L96.4268 49.5938L96.7373 49.542H97.5146L98.0322 49.749ZM0.776367 48.6123V51.1943L0.931641 51.6074L1.19043 51.8662L1.4502 51.9697H2.12305L2.48535 51.7627L2.64062 51.5049L2.74414 51.1426L2.7959 48.4053H3.41797L3.52148 48.457V50.833L3.41797 51.6074L3.21094 52.0215L2.74414 52.4346L2.22656 52.5889H1.24219L0.724609 52.4346L0.310547 52.0723L0.103516 51.6074L0.0517578 51.3496V48.4053H0.672852L0.776367 48.6123ZM26.1523 51.8145L26.1006 52.5381H25.4785L25.4268 52.3828L25.4785 52.124L25.168 52.3311L24.9092 52.5381L24.7539 52.5889H23.9766L23.5625 52.3828L23.252 52.0215L23.0449 51.5049V50.6787L23.252 50.1621L23.5625 49.8008L24.0811 49.542H24.8057L25.2197 49.749L25.4268 49.9033V48.1992L25.7891 48.1475H26.1006L26.1523 51.8145ZM33.2471 52.5381H32.626L32.5225 52.1758L32.3662 52.2275L32.3145 52.3828L31.9004 52.5889H31.124L30.71 52.3828L30.3984 51.9697L30.2432 51.6084L30.1914 51.2979V50.833L30.3467 50.3164L30.5537 50.0068L30.9688 49.6455L31.2793 49.542H31.9521L32.3662 49.749L32.626 49.9551L32.5742 49.6455V48.1992L32.626 48.1475H33.2471V52.5381ZM94.5107 49.5938H95.2871V50.0586L95.2354 50.1104H94.5107L94.5625 51.8145L94.666 52.0732H95.2871V52.4346L95.2354 52.5381L95.0283 52.5889H94.3555L94.0439 52.4346L93.8887 52.1758L93.8369 51.4014L93.8887 50.1104H93.2676V49.5938H93.8887V48.9219L94.3037 48.7676H94.5107V49.5938ZM6.8877 49.6973L7.19824 50.0068L7.30176 50.4717V52.4863L7.25 52.5381H6.62891L6.57715 50.627L6.37012 50.2139L6.21484 50.1104H5.74805L5.4375 50.2656L5.23047 50.5752L5.17871 50.833V52.4863L5.12695 52.5381H4.50586V49.5938H5.17871L5.23047 49.9551L5.59277 49.6455L5.95508 49.542H6.47363L6.8877 49.6973ZM8.90723 49.8008L8.85547 52.5381H8.23438L8.18262 52.4863V49.5938H8.85547L8.90723 49.8008ZM10.3574 50.0068L10.9268 51.8145L11.0303 52.0215L11.3408 50.9883L11.7559 49.6973L12.0146 49.5938H12.584L12.4287 50.0586L11.5996 52.0215L11.3926 52.4346L11.2891 52.5381H10.668L10.5127 52.4346L9.8916 50.8848L9.4248 49.6973V49.5938H10.2021L10.3574 50.0068ZM18.2803 49.5938V50.1621H17.8145L17.4521 50.3174L17.2451 50.5752L17.1416 50.833L17.0898 52.4863L17.0381 52.5381H16.4678L16.416 52.4863V49.6455L16.4678 49.5938H17.0898L17.1416 49.6455V50.0586H17.2451L17.3486 49.8525L17.5557 49.6455L17.8662 49.542H18.1768L18.2803 49.5938ZM22.2686 52.4863L22.2168 52.5381H21.6475L21.5957 52.2793V49.5938H22.2686V52.4863ZM47.9023 52.4863L47.8506 52.5381H47.2295L47.1777 50.5234V49.6455L47.2295 49.5938H47.9023V52.4863ZM55.1006 49.6973L55.3086 49.9033L55.4639 50.2656L55.5156 50.5752V52.4863L55.4639 52.5381H54.8418L54.79 52.3311V50.833L54.6865 50.3682L54.4277 50.1104L54.1689 50.0586L53.7031 50.2139L53.4961 50.4717L53.4434 50.5752L53.3916 52.4863L53.3398 52.5381H52.7188L52.667 52.4863V49.6973L52.9258 49.5938H53.3398L53.3916 49.9551L53.7031 49.749L53.9102 49.5938L54.1172 49.542H54.7383L55.1006 49.6973ZM60.4346 48.1992V52.4863L60.3828 52.5381H59.7617L59.71 52.2793V48.251L59.8135 48.1475H60.3828L60.4346 48.1992ZM78.7158 49.5938V50.1104L77.9385 50.2656L77.7314 50.5234L77.6279 50.6787L77.5762 52.4346L77.5244 52.5381H76.9033L76.8516 52.4863V49.6455L76.9033 49.5938H77.4209L77.5762 49.6973V50.0068L77.9902 49.6455L78.043 49.5938L78.5088 49.542L78.7158 49.5938ZM79.959 49.6455V52.4863L79.9072 52.5381H79.2334V49.5938H79.9072L79.959 49.6455ZM83.2734 49.749L83.4805 50.0068L83.6875 49.9033L83.998 49.6455L84.2568 49.542H84.8789L85.2412 49.6973L85.5 50.0068L85.6035 50.3174V52.4863L85.5518 52.5381H84.9824L84.9307 52.4863V50.7305L84.8271 50.3682L84.5674 50.1104L84.2568 50.0586L83.9463 50.2139L83.7393 50.5234L83.6357 51.04L83.584 52.5381H82.9619L82.9102 52.4863L82.8584 50.5234L82.6514 50.2139L82.3408 50.0586L81.9268 50.1621L81.668 50.5752L81.6162 50.833L81.5645 52.5381H80.8906V49.5938H81.5127L81.5645 49.6455V49.9551L81.875 49.749L82.2891 49.542H82.9619L83.2734 49.749ZM92.3877 49.749L92.6465 50.0586L92.6982 50.2139L92.75 50.7822V52.4863L92.6982 52.5381H92.0762L92.0244 52.4863V50.6787L91.8691 50.2656L91.6621 50.1104H91.1445L90.9375 50.2139L90.6787 50.627L90.627 52.125V52.4863L90.5752 52.5381H89.9531L89.9014 52.3828V49.5938H90.5752L90.627 49.8525L90.6787 49.9551L91.041 49.6455L91.3516 49.542H91.9727L92.3877 49.749ZM99.9482 52.5381H99.3271L99.2754 52.4863V48.1992L99.6895 48.1475H99.9482V52.5381ZM37.0273 48.5088L37.7529 49.542L38.5293 50.6787L39.0986 51.5049L39.1504 51.5566V48.457L39.2021 48.4053H39.8242L39.876 48.457V52.4346L39.8242 52.5371H39.1504L38.8398 52.2793L38.0635 51.1426L37.4414 50.2646L36.8203 49.335L36.7686 52.5371H36.0957L36.0439 48.5605L36.0957 48.4053H36.7686L37.0273 48.5088ZM65.6133 48.457V48.9219L65.5615 48.9736H63.9561L63.9043 50.1621H65.458L65.5098 50.3164L65.458 50.7295H63.9043V52.0215H65.665L65.7168 52.0723V52.5371H63.2832L63.2314 52.4863V48.4053H65.5615L65.6133 48.457ZM27.7578 51.2471L27.499 51.4531V51.8145L27.6543 52.0732L27.9131 52.2275L28.2236 52.1758L28.5859 51.9697L28.8447 51.6602L28.8965 51.1436L28.8447 51.0918H28.4824L27.7578 51.2471ZM41.6885 51.1953L41.3779 51.4014L41.2744 51.5566L41.3262 51.918L41.6367 52.1758L41.8438 52.2275L42.3096 52.0215L42.6719 51.6602L42.7246 51.2471L42.6201 51.0918H42.2578L41.6885 51.1953ZM57.0693 51.2471L56.8096 51.4531L56.8613 51.918L57.1211 52.1758L57.3799 52.2275L57.8975 51.9697L58.1562 51.6602L58.208 51.2471L58.1562 51.0918H57.7422L57.0693 51.2471ZM31.1758 50.2646L30.917 50.6787L30.8652 50.8848V51.3496L31.0205 51.7109L31.2793 52.0215L31.6934 52.1758L32.1592 52.0215L32.4189 51.8145L32.5742 51.5049L32.626 51.1943V50.7812L32.4707 50.3682L32.1592 50.1104L32.0557 50.0586H31.4863L31.1758 50.2646ZM96.6338 51.2471L96.375 51.4014L96.3232 51.7119L96.4785 52.0215L96.6855 52.1758H97.0479L97.4629 51.918L97.6699 51.6602L97.7217 51.5566V51.1436L97.6699 51.0918H97.3584L96.6338 51.2471ZM49.7148 50.2139L49.5078 50.4717L49.3525 50.8848V51.3496L49.5596 51.7627L49.8184 52.0215L50.1299 52.125H50.4922L50.9062 51.918L51.165 51.6084L51.2168 51.4531V50.7305L51.0615 50.3682L50.751 50.1104L50.5957 50.0586H50.0254L49.7148 50.2139ZM70.585 50.2656L70.3779 50.5752L70.3262 50.7305V51.5566L70.5332 51.8662L70.8438 52.0732L71.3105 52.125L71.7246 51.918L71.9316 51.6084L72.0352 51.1953V50.7305L71.8799 50.3682L71.5693 50.1104L71.4658 50.0586H70.9482L70.585 50.2656ZM24.1328 50.1621L23.873 50.4717L23.7178 50.9365V51.3496L23.873 51.7627L24.1328 52.0215L24.3398 52.124H24.8057L25.1162 51.918L25.4268 51.5566L25.4785 51.2979V50.833L25.3232 50.3682L25.0127 50.1104L24.5986 50.0068L24.1328 50.1621ZM13.7754 50.2139L13.5684 50.5234L13.5166 50.7822L13.9307 50.833L15.0703 50.7822L15.0176 50.4199L14.8105 50.1104L14.4482 49.9551H14.293L13.7754 50.2139ZM74.2617 50.1621L74.0029 50.5752V50.7822L74.2617 50.833H75.2979L75.5049 50.7822L75.4014 50.3174L75.1943 50.0586L74.9873 49.9551H74.6758L74.2617 50.1621ZM87.3643 50.1621L87.1055 50.4717L87.002 50.7305L87.0537 50.7822H88.5547L88.5029 50.4199L88.2959 50.1104L87.9854 49.9551H87.7266L87.3643 50.1621ZM8.95898 48.4053L8.90723 48.8184L8.80371 48.9219H8.33789L8.18262 48.7676L8.13086 48.4053L8.28613 48.251H8.80371L8.95898 48.4053ZM22.3203 48.3535V48.7158L22.2686 48.8701L22.165 48.9219H21.75L21.543 48.7158V48.4053L21.6982 48.251H22.165L22.3203 48.3535ZM47.9541 48.3027V48.7158L47.8506 48.9219H47.333L47.1777 48.7676V48.3535L47.2812 48.251H47.8506L47.9541 48.3027ZM79.959 48.3027V48.7676L79.8555 48.9219H79.4404L79.2334 48.8184L79.1816 48.3535L79.3369 48.251H79.8037L79.959 48.3027ZM2.07129 36.1094L2.12305 41.2227L2.27832 41.6875L2.74512 42.1006L3.31445 42.3066H4.09082L4.66113 42.1006L5.0752 41.79L5.28223 41.4805L5.33398 41.0674L5.38574 36.1094L5.4375 36.0576H7.40527L7.50879 36.1611V37.4521L7.45703 41.584L7.25 42.3066L6.93945 42.875L6.52539 43.3916L6.00684 43.8047L5.4375 44.1143L4.86816 44.3213L4.29785 44.4248H3.10742L2.38184 44.2695L1.76074 44.0117L1.19141 43.5977L0.724609 43.1328L0.362305 42.5654L0.155273 42.1006L0.0517578 41.6875L0 40.5508V36.2637L0.0517578 36.0576H1.96777L2.07129 36.1094ZM18.4873 36.3672L19.0059 36.832L19.4199 37.1934L19.9375 37.6582L20.3516 38.0205L21.0254 38.6396L21.6465 39.208L22.3721 39.8281L22.9414 40.293L22.9932 36.1094L23.0449 36.0576H25.0645L25.1162 36.1094V44.166L25.0127 44.373L24.8574 44.4248L24.4434 44.2178L23.666 43.4951L23.252 43.1328L22.7344 42.668L22.1641 42.1523L21.75 41.79L21.1289 41.2227L20.5596 40.7578L19.9375 40.1895L19.7822 40.1377V44.3213L19.627 44.373H17.7627L17.6592 44.2695V36.2129L17.7109 36.0576H18.0215L18.4873 36.3672ZM77.0586 36.1602L77.835 36.4707L78.6123 36.9355L79.0264 37.2969L79.0781 37.4521L78.7158 37.8652L78.457 38.1748L78.042 38.5361L77.7832 38.7949L77.5244 38.7432L77.0068 38.3818L76.4893 38.1748L76.2295 38.123H75.2461L74.7285 38.2783L74.1582 38.5879L73.6406 39.1045L73.4336 39.5176L73.3301 39.8789V40.6543L73.5371 41.2217L74.0029 41.7383L74.5723 42.0996L75.2461 42.3066H76.2295L76.9033 42.0996L77.4209 41.79L77.6797 41.584L78.042 41.8936L78.5605 42.4102L78.8711 42.668L79.0781 42.9268L79.0264 43.1846L78.5088 43.5977L77.6797 44.0625L77.1104 44.2695L76.2295 44.4238H75.2979L74.5723 44.3213L73.6406 44.0107L72.8633 43.5459L72.3457 43.0811L71.8799 42.5645L71.4658 41.8418L71.207 41.0156L71.1553 40.7051V39.7246L71.3623 38.8467L71.7764 38.0195L72.1904 37.5029L72.708 36.9873L73.3818 36.5732L73.8994 36.3154L74.5723 36.1084L75.2461 36.0059H76.1777L77.0586 36.1602ZM55.1523 36.2637L55.6191 37.0391L56.3955 38.1748L56.5508 38.2266L57.2764 37.0908L57.8975 36.1611L58.001 36.0576H60.1758L60.2793 36.1094L60.1758 36.3154L59.5029 37.4521L59.0889 38.123L58.3115 39.415L57.8975 40.1377L57.9492 40.3955L58.415 41.2227L58.9336 42.0488L59.8135 43.4951L60.2275 44.2178V44.373H58.0527L57.7939 44.1143L57.2764 43.3398L56.7578 42.5137L56.5508 42.2041H56.3955L55.8779 42.9785L55.1006 44.2178L54.8936 44.373H52.7188L52.667 44.2695L53.4961 42.875L54.1172 41.8418L54.9971 40.3955L55.0488 40.1895L54.79 39.6729L53.9102 38.2266L53.2363 37.0908L52.7188 36.2637V36.0576H54.9453L55.1523 36.2637ZM43.2422 36.0576V37.6064L43.1904 37.9678L43.0869 38.0195H39.6689V39.1562H42.0508L42.4131 39.208V41.1191L42.2578 41.1699H39.6689V42.2549L43.1904 42.3066L43.2422 42.3584V44.2178L42.8799 44.3213H37.5459L37.4941 44.2695V36.0576L37.5459 36.0059H43.1387L43.2422 36.0576ZM96.2197 36.5225L96.6338 37.2969L97.3066 38.7432L97.9805 40.0859L98.5498 41.2744L99.3789 42.9785L99.9482 44.2178L99.8965 44.3213H97.8252L97.5654 43.9082L97.2031 43.1846V43.082H94.4072L94.252 43.2363L93.8369 44.0625L93.6299 44.3213H91.5586L91.6104 44.0117L92.5947 41.9453L93.6299 39.8281L94.459 38.0723L95.1318 36.6777L95.4424 36.1611L95.5459 36.0576H95.9092L96.2197 36.5225ZM95.2871 41.2227L95.3389 41.377H96.168L96.0127 40.9121L95.8047 40.4473L95.7012 40.3955L95.2871 41.2227ZM64.6299 0.838867V6.98438H67.5293L68.7207 7.03613L68.7725 7.08789V9.05078H71.207L72.8643 9.10254L72.916 9.1543V11.1162H79.1299V9.25781L79.1816 9.10254L80.7871 9.05078H87.7783L89.5391 9.10254L89.5908 9.1543V11.1162H91.6104L95.8057 11.168L95.8574 11.2197V13.1826H97.6699L99.9482 13.2344L100 13.3379V17.8311L99.9482 19.3799L99.6895 19.4316L97.9287 19.4834L97.877 23.5117L97.8252 23.5635L95.8574 23.6152V29.71L95.4941 29.8135H94.0967L93.7334 29.7617L93.6816 25.6816V19.4834H89.6426L89.5908 27.6436L89.5391 27.6953H87.4678L87.416 17.418L85.6035 17.3662L85.3965 17.2627V15.3516L83.3252 15.2998V29.7617L82.2891 29.8135H81.46L81.2529 29.7617L81.2012 29.6582L81.1494 21.5498H77.1104L77.0586 27.6953H75.0391L74.9873 27.5928L74.9355 17.418L73.0713 17.3662L72.916 17.3145L72.8643 15.4033L72.2939 15.3516L70.8438 15.2998V17.2627L70.792 17.3145L69.8604 17.3662H68.7725V25.5781L68.7207 25.6299L67.9961 25.6816H64.6299V29.6582L64.5781 29.7617L64.1641 29.8135H62.8691L62.5068 29.7617L62.4551 29.0898V17.418L60.4346 17.3662V19.3291L60.3828 19.3799L59.7617 19.4316H58.3633V20.7744L58.3115 27.6953H56.2402L56.1885 26.6113V17.418L52.0977 17.3662V29.7617L51.4238 29.8135H50.2852L49.9736 29.71L49.9219 27.7988L48.3691 27.7471L47.9541 27.6953L47.9023 27.4375V19.4316H43.7598V21.4463L43.6562 21.498H41.6885L41.6367 29.7617L39.876 29.8135L39.5654 29.7617L39.5137 19.4834L37.5449 19.4316L37.4932 19.3799V17.3662H35.4219L35.3701 19.3799L34.8008 19.4316H33.3506V25.5781L33.2988 25.6299H31.2793L31.2275 23.9258V21.5498H27.1357L27.084 29.7617L26.6699 29.8135H25.5312L25.0645 29.7617L25.0127 29.71L24.9609 23.6152L22.9414 23.5635L22.8896 23.4092V21.5498L20.8701 21.498V25.7334L20.8184 27.6953L19.0059 27.7471L18.7988 27.6953L18.7471 27.541V19.4316H14.6035V29.7617L13.6201 29.8135H12.7393L12.5322 29.7617V17.418L10.4609 17.3662L10.4092 19.3799L10.1504 19.4316L8.38965 19.4834L8.33789 25.6299L7.76758 25.6816H6.37012L6.2666 25.3711V21.5498H2.1748L2.12305 29.7617L1.8125 29.8135L0.0517578 29.7617L0 29.5029V13.3379L0.0517578 13.2344H4.14258L4.19434 13.2861V15.2998H8.33789V13.2861L8.38965 13.2344L11.1338 13.1826H16.6758V11.2197L16.7275 11.168L19.7822 11.1162H22.2168L24.9609 11.168L25.0127 11.2197V13.1826H33.2471L33.2988 11.2715L33.3506 11.168L37.4932 11.1162V9.10254L38.7881 9.05078H41.6367V7.08789L41.6885 7.03613L42.6719 6.98438H48.835L49.9736 7.03613L50.0264 7.13965V9.05078H54.1172V7.34668L54.1689 7.03613L55.4639 6.98438H60.3828V3.00781L60.5391 2.85254L62.4033 2.80176L62.4551 0.838867L62.5586 0.787109H64.2676L64.6299 0.838867Z" fill="#F0F2F7"/>
</svg>
