<svg width="1366" height="33" viewBox="0 0 1366 33" fill="none" xmlns="http://www.w3.org/2000/svg">
<path d="M29 0V18.0576H86V9H114V23H142V27H171V0H199V23H256V5H285V18.0576L313 18V13.8867H340.952V0.112305H370.076V17.8867H427.272V9.1416H455.569V22.6846H483.865V27.1992H512.161V22.6846L539.75 22.5723V0.113281H569.462V18.1709H597.758V22.6846H654.351V4.62695H682.646V0H711.65V27.1992H768.242V4.62695H796.539V22.6846H825.542V27.1992H853.839V0.337891H882.842V9.25488H939.435V27.4248H967.73V31.7139H996.027V27.0869H1023.62V4.62695H1052.62V18.0576H1109.21V0.337891H1138.22V31.7139L1166.51 31.6016V27.0869H1194.1V4.62695H1224.52V22.5723H1279.7V0.225586H1309.41V13.7686H1337V23H1366V33H0V0H29Z" fill="#022873"/>
</svg>
