<svg width="100" height="59" viewBox="0 0 100 59" fill="none" xmlns="http://www.w3.org/2000/svg">
<path d="M29.0527 55.1338L29.3115 55.3926L29.5703 55.8057L29.6738 56.374V56.6318L29.6221 56.6836H27.4473L27.6543 57.252L27.9648 57.5098L28.1201 57.5615H28.8457L29.2598 57.3555H29.4668L29.415 57.7168L29.208 57.9229L28.9492 58.0264L28.2236 58.0781L27.6025 57.9746L27.2402 57.7686L26.9297 57.3037L26.7734 56.7871V56.2705L26.9297 55.7539L27.292 55.3408L27.5508 55.1338L28.0166 54.9795H28.5859L29.0527 55.1338ZM42.2061 53.8945L42.3096 53.998L42.3613 54.7207L42.2578 54.7725L41.585 54.6172H40.6523L40.1348 54.876L39.876 55.1855L39.7207 55.7021V56.3223L39.876 56.7354L40.1348 57.0449L40.3936 57.2002L40.6006 57.252H41.3779L41.5332 57.1484V56.5283L41.4814 56.4248L40.7041 56.374L40.6523 56.3223V55.7021L40.7041 55.6504H42.2578L42.5684 55.7021V57.3545L42.5166 57.7686L42.1025 57.9229L41.6885 58.0264L40.8076 58.0781L40.0312 57.9746L39.5137 57.7686L39.0986 57.4062L38.7881 56.8896L38.6328 56.4248V55.5469L38.8398 54.9795L39.1504 54.5146L39.5654 54.1523L40.1348 53.8945L40.5488 53.791H41.7402L42.2061 53.8945ZM58.1045 53.8945L58.208 54.0498V54.7207L57.7422 54.6689L57.4316 54.6172H56.9658L56.4473 54.7725L56.2402 54.9277H56.1367L56.0332 55.1338L55.8779 55.4961L55.8262 56.1152L55.9814 56.6318L56.2402 56.9932L56.6025 57.2002L56.8613 57.252H57.5352L58.1562 57.0449L58.208 57.0967V57.7686L58.1045 57.9229L57.7939 58.0264L57.2764 58.0781H56.7061L56.0332 57.9746L55.5156 57.7168L55.1006 57.3037L54.8418 56.7871L54.7383 56.4248V55.5986L54.9453 54.9795L55.2568 54.5146L55.7227 54.1016L56.3438 53.8428L56.6543 53.791H57.7939L58.1045 53.8945ZM25.9971 57.9229L25.9453 58.0264H25.4795L25.376 57.9746L25.2725 57.6133L24.8057 57.9746L24.6504 58.0264H23.8223L23.4082 57.8193L23.0967 57.4062L22.9414 56.8896V56.2188L23.0967 55.7021L23.4082 55.2891L23.874 55.0303L24.1328 54.9795H24.6504L25.0654 55.1855L25.2725 55.3408L25.3242 53.6357H25.9971V57.9229ZM32.833 53.6875V57.9746L32.7812 58.0264H32.1592L32.1074 57.9746V53.6357H32.7812L32.833 53.6875ZM35.8369 55.1855L36.0957 55.4961L36.1992 55.8574V57.8711L36.1475 58.0264H35.6299L35.5771 57.665L35.3184 57.8203L34.9561 58.0264H34.1279L33.7646 57.8203L33.5576 57.458V56.9414L33.7129 56.6318L33.9727 56.4258L34.4385 56.2705L35.5254 56.1152L35.3701 55.6504L35.1631 55.4961H34.749L34.2832 55.5986L33.9727 55.7539H33.8164V55.3408L34.0762 55.1338L34.6455 54.9795H35.4219L35.8369 55.1855ZM45.417 55.0312L45.4688 55.4961L45.417 55.8574H44.7441L44.4844 56.0127L44.3809 56.2705L44.3291 56.5801L44.2773 57.9746L44.2256 58.0264H43.4492L43.3457 57.9229V55.083L43.3975 55.0312H44.3291V55.3408L44.5889 55.2891L44.6924 55.083L45.1064 54.9795L45.417 55.0312ZM48.0059 55.1338L48.2646 55.3926L48.4209 55.5986L48.4727 55.7539L48.5244 56.3223V57.9229L48.4209 58.0264H47.7471L47.54 57.8203V57.7168L47.1777 58.0264H46.1934L45.8828 57.8203L45.6758 57.5098L45.624 57.0449L45.7793 56.6836L46.0381 56.4258L46.5039 56.2188L47.54 56.0635L47.4883 55.8057L47.333 55.6504H46.7119L46.1416 55.8574L45.9346 55.8057V55.2373L45.9863 55.1338L46.7637 54.9795H47.5918L48.0059 55.1338ZM51.9932 55.1338L52.2529 55.4443L52.4082 56.0127V57.9746L52.3047 58.0264H51.4238L51.3203 56.0635L51.2168 55.8057L51.0098 55.7021L50.5957 55.7539L50.3369 56.0635L50.2852 57.9229L50.2324 57.9746H49.3525L49.3008 57.9229V55.083L49.3525 55.0312H50.2852L50.3369 55.3408L50.6475 55.1338L51.0615 54.9795H51.6309L51.9932 55.1338ZM61.0049 55.1338L61.3672 55.4443L61.4707 55.6504L61.5225 55.9609V57.9746L61.4707 58.0264H60.7461L60.6426 57.7686L60.4346 57.8203L60.124 58.0264H59.2441L58.9854 57.8711L58.7773 57.6133L58.7256 57.458V56.8389L58.9336 56.5283L59.2441 56.3223L59.8135 56.167L60.5898 56.0635L60.5381 55.8057L60.2793 55.5986L59.71 55.6504L59.1924 55.8057H58.9854V55.2891L59.2441 55.083L59.71 54.9795H60.5898L61.0049 55.1338ZM67.0635 55.1855L67.3223 55.4443L67.4775 55.7539L67.5293 56.0635V57.9229L67.4258 58.0264H66.7012L66.5459 57.7686L66.3389 57.8711L66.1318 58.0264H65.1992L64.8887 57.8203L64.6816 57.5098L64.6299 57.1484L64.7334 56.7354L64.9404 56.4766L65.3545 56.2705L66.1836 56.1152L66.5459 56.0635L66.4941 55.8057L66.1836 55.5986L65.5615 55.7021L65.1475 55.8574H64.9922L64.9404 55.7539V55.2891L65.1475 55.083L65.7168 54.9795H66.5459L67.0635 55.1855ZM70.6895 55.083L70.7412 55.3408V55.8057L70.6377 55.8574L70.4297 55.7539H69.6533L69.3428 55.9609L69.1875 56.2188L69.1357 56.6836L69.291 57.0967L69.5498 57.3037L69.8604 57.4062L70.2744 57.3555L70.5332 57.252H70.6895L70.7412 57.5098L70.6895 57.8711L70.4297 58.0264H69.2393L68.8242 57.8711L68.4619 57.5615L68.2031 57.0967L68.1514 56.8906V56.2188L68.3066 55.7539L68.7725 55.2373L69.1875 55.0312L69.3945 54.9795H70.4814L70.6895 55.083ZM73.4854 55.1338L73.7441 55.3408L73.9512 55.7021L74.0029 55.9092V57.9746L73.8994 58.0264H73.2266L72.916 57.7168L72.8115 57.9229L72.6045 58.0264H71.6729L71.3623 57.8203L71.207 57.5615L71.1553 57.3555V56.8906L71.3623 56.5283L71.7246 56.3223L72.3457 56.167L73.0195 56.0635L72.9678 55.7539L72.8115 55.6504H72.2422L71.5693 55.8574H71.4658L71.4141 55.3408L71.5176 55.1338L72.2939 54.9795H73.0713L73.4854 55.1338ZM76.7998 55.083L76.8516 55.6504L76.6963 55.7539L76.334 55.6504H75.7637L75.6084 55.7021L75.6602 56.0127L76.6445 56.4258L77.0068 56.8389V57.4062L76.6963 57.8203L76.3857 57.9746L76.126 58.0264H74.7803L74.5732 57.8203V57.3037L74.6768 57.252L74.9873 57.4062L75.2461 57.458H75.8154L76.0225 57.3555V57.0967L74.8838 56.5283L74.625 56.2188V55.6504L74.832 55.3408L75.0908 55.1338L75.5049 54.9795H76.4375L76.7998 55.083ZM64.4229 55.0312V55.8574H63.6973L63.4385 56.1152L63.335 56.4258L63.2832 57.9746H62.3516V55.083L62.4033 55.0312H63.2832L63.335 55.3408L63.6973 55.1338L63.8008 55.0312L64.0596 54.9795L64.4229 55.0312ZM34.3867 56.7354L34.1797 56.9414L34.2314 57.3555L34.4902 57.6133L34.8008 57.665L35.3184 57.4062L35.5254 57.0967L35.5771 56.9414V56.5801H35.0596L34.3867 56.7354ZM23.9258 55.7021L23.7188 55.96L23.6152 56.3223V56.8896L23.8223 57.3027L24.1846 57.5615L24.5986 57.6133L25.0127 57.4062L25.2725 57.0967L25.376 56.5801L25.3242 56.0117L24.9609 55.5986L24.7539 55.4951H24.2881L23.9258 55.7021ZM59.7617 56.7354L59.5547 56.8906V57.252L59.7617 57.458L60.124 57.5098L60.4346 57.3555L60.5898 57.1484L60.6426 56.6836L60.5898 56.6318H60.2275L59.7617 56.7354ZM46.6602 56.7871L46.5557 56.8906V57.3037L46.7119 57.458H47.2812L47.54 57.2002L47.5918 57.0449V56.6836L47.54 56.6318H47.126L46.6602 56.7871ZM65.7168 56.7354L65.5615 56.8906V57.3037L65.7168 57.458H66.1836L66.4424 57.3037L66.5977 57.0449V56.6836L66.5459 56.6318H66.1836L65.7168 56.7354ZM72.2939 56.6836L72.0352 56.9932L72.0869 57.3555L72.1904 57.458H72.708L73.0195 57.2002L73.123 56.9932V56.6836L72.9678 56.5801H72.8115L72.2939 56.6836ZM27.8096 55.5986L27.499 55.9609V56.2705H28.8975L28.9492 56.2188L28.8975 55.8057L28.6387 55.4961L28.5342 55.4443H28.1201L27.8096 55.5986ZM72.2422 49.04L72.5527 49.4531L72.709 49.918V50.6406L72.5527 51.1572L72.2422 51.5703L71.9834 51.7773L71.6211 51.8809H70.9482L70.5332 51.6738L70.3779 51.5186L70.3262 53.1719L69.9121 53.2236L69.6533 53.1719V48.8848H70.2227L70.3262 48.9365L70.3779 49.2979L70.7402 48.9883L71.1553 48.833H71.7764L72.2422 49.04ZM15.2256 49.04L15.4844 49.3496L15.6914 49.8145L15.7432 50.4863L15.6914 50.5381H13.5684L13.6201 50.9512L13.8789 51.2607L14.3447 51.416H14.7588L15.2256 51.2607L15.4844 51.1572L15.5361 51.209L15.4844 51.5703L15.2773 51.7773L14.9141 51.8809H13.9307L13.4648 51.7256L13.1016 51.3643L12.8945 50.8994L12.8428 50.6924V50.0215L13.1016 49.4014L13.4648 49.04L13.9307 48.833H14.707L15.2256 49.04ZM20.7148 48.9365V49.5049L20.4551 49.4014L20.2998 49.3496H19.627L19.3682 49.5049L19.3164 49.7109L19.5752 49.9697L20.3516 50.2793L20.7666 50.5889L20.8701 50.7959V51.209L20.7148 51.4668L20.3516 51.7773L19.9893 51.8809H19.0059L18.6426 51.7773V51.209L18.8506 51.2607L19.2129 51.416H19.7822L20.0928 51.2607L20.1963 51.0029L19.9375 50.7959L19.1611 50.4346L18.7988 50.1758L18.6426 49.8145L18.7461 49.2979L19.1611 48.9365L19.4717 48.833H20.4551L20.7148 48.9365ZM29.1562 49.04L29.415 49.3496L29.4668 49.5566V51.8291H28.8965L28.8447 51.4668L28.3789 51.8291L28.2236 51.8809H27.4473L27.1357 51.6738L26.9287 51.416L26.877 51.3125V50.7441L27.084 50.3828L27.4473 50.1758L28.1201 50.0215L28.6895 49.9697L28.8447 49.918L28.7412 49.6084L28.4824 49.3496H27.8613L27.3438 49.5566L27.1357 49.6084V49.1943L27.3438 48.9883L27.8613 48.833H28.6895L29.1562 49.04ZM42.9834 49.04L43.2422 49.4531L43.2939 49.6592L43.3457 51.7773L43.2939 51.8291H42.7246L42.6201 51.4668L42.1543 51.8291L42.0508 51.8809H41.2744L40.8594 51.6221L40.6523 51.209V50.8477L40.8076 50.4863L41.1191 50.2275L41.8955 50.0215L42.6719 49.918L42.5166 49.5566L42.3096 49.3496L41.8955 49.2979L41.2227 49.5049L40.9111 49.6084V49.2461L41.1191 48.9883L41.6885 48.833H42.5166L42.9834 49.04ZM46.5039 48.9365L46.5557 49.3496L46.5039 49.5566L46.1934 49.4531L45.6758 49.3496L45.21 49.5049L44.9512 49.7627L44.7949 50.124V50.7441L44.9512 51.0537L45.21 51.2607L45.417 51.3643H45.9863L46.4004 51.1572H46.5039L46.5557 51.5186L46.4004 51.7773L46.0898 51.8809H45.1582L44.6914 51.7256L44.3809 51.4668L44.1221 51.0537L44.0186 50.7441V50.124L44.2256 49.5566L44.5879 49.1436L44.8994 48.9365L45.3135 48.833H46.2451L46.5039 48.9365ZM51.2686 48.9883L51.5791 49.2461L51.8906 49.8662V50.8477L51.6309 51.3643L51.165 51.7773L50.8027 51.8809H49.8184L49.3525 51.7256L48.9902 51.416L48.7314 50.9512L48.6797 50.7441V50.0215L48.8867 49.4531L49.249 49.0918L49.6631 48.8848L49.8701 48.833H50.751L51.2686 48.9883ZM58.415 48.9883L58.7266 49.3496L58.8301 49.7109V51.7773L58.7783 51.8291H58.2598L58.1562 51.6738V51.4668L57.6904 51.8291L57.5352 51.8809H56.7578L56.4473 51.6738L56.2402 51.416L56.1885 51.3125V50.6924L56.3955 50.3828L56.7578 50.1758L57.4316 50.0215L58.001 49.9697L58.1562 49.8662L57.9492 49.4531L57.7939 49.3496H57.1729L56.5508 49.6084L56.3955 49.5566L56.4473 49.1943L56.6543 48.9883L57.1729 48.833H58.001L58.415 48.9883ZM66.96 48.9365L67.375 49.6592L67.5303 49.9697L67.6855 49.918L68.1514 49.0918L68.3584 48.8848H69.084L68.9795 49.0918L68.5654 49.6592L68.0996 50.3311L68.1514 50.5371L68.8242 51.4668L69.0322 51.7256V51.8809L68.3066 51.8291L68.0996 51.6221L67.6338 50.8477L67.4785 50.7959L67.2715 51.209L66.9082 51.7773L66.8564 51.8291H66.0801L66.2354 51.5703L67.0117 50.4863L66.96 50.2275L66.5459 49.6084L66.1836 49.0918L66.0801 48.8848H66.8047L66.96 48.9365ZM75.6602 49.04L75.9189 49.3496L76.126 49.918L76.1777 50.4346L76.126 50.5381H74.0547L74.1064 51.0029L74.3135 51.2607L74.7275 51.416H75.2461L75.6602 51.2607L75.9189 51.209L75.9707 51.4668L75.8154 51.7256L75.3496 51.8809H74.3135L73.8994 51.7256L73.5371 51.3643L73.2783 50.7441V50.0732L73.4854 49.5049L73.8477 49.0918L74.21 48.8848L74.417 48.833H75.0908L75.6602 49.04ZM88.7627 49.0918L89.0732 49.5049L89.2285 50.124V50.4863L89.1768 50.5381H87.002L87.1572 51.0029L87.416 51.2607L87.7783 51.416H88.2959L88.7109 51.2607L88.9697 51.1572L89.0215 51.416L88.8662 51.6738L88.6592 51.8291L88.3994 51.8809H87.416L86.9502 51.7256L86.6904 51.5186L86.4316 51.0537L86.3281 50.6406V50.1758L86.4834 49.6084L86.7939 49.1943L87.2607 48.8848L87.4678 48.833H88.2441L88.7627 49.0918ZM98.0322 49.04L98.2393 49.2979L98.3428 49.5566L98.3945 49.918V51.7773L98.3428 51.8291H97.8252L97.7217 51.7773L97.6699 51.5186L97.3584 51.7773L97.0479 51.8809H96.2197L95.8574 51.5703L95.7021 51.1055L95.8057 50.5889L96.0645 50.2793L96.6855 50.0732L97.6699 49.918L97.6182 49.6592L97.4629 49.4014L97.2549 49.2979H96.8926L96.375 49.4531L96.1162 49.6084L95.9609 49.5566L96.0127 49.0918L96.4268 48.8848L96.7373 48.833H97.5146L98.0322 49.04ZM0.776367 47.9033V50.4854L0.931641 50.8984L1.19043 51.1572L1.4502 51.2607H2.12305L2.48535 51.0537L2.64062 50.7959L2.74414 50.4336L2.7959 47.6963H3.41797L3.52148 47.748V50.124L3.41797 50.8984L3.21094 51.3125L2.74414 51.7256L2.22656 51.8799H1.24219L0.724609 51.7256L0.310547 51.3633L0.103516 50.8984L0.0517578 50.6406V47.6963H0.672852L0.776367 47.9033ZM26.1523 51.1055L26.1006 51.8291H25.4785L25.4268 51.6738L25.4785 51.415L25.168 51.6221L24.9092 51.8291L24.7539 51.8799H23.9766L23.5625 51.6738L23.252 51.3125L23.0449 50.7959V49.9697L23.252 49.4531L23.5625 49.0918L24.0811 48.833H24.8057L25.2197 49.04L25.4268 49.1943V47.4902L25.7891 47.4385H26.1006L26.1523 51.1055ZM33.2471 51.8291H32.626L32.5225 51.4668L32.3662 51.5186L32.3145 51.6738L31.9004 51.8799H31.124L30.71 51.6738L30.3984 51.2607L30.2432 50.8994L30.1914 50.5889V50.124L30.3467 49.6074L30.5537 49.2979L30.9688 48.9365L31.2793 48.833H31.9521L32.3662 49.04L32.626 49.2461L32.5742 48.9365V47.4902L32.626 47.4385H33.2471V51.8291ZM94.5107 48.8848H95.2871V49.3496L95.2354 49.4014H94.5107L94.5625 51.1055L94.666 51.3643H95.2871V51.7256L95.2354 51.8291L95.0283 51.8799H94.3555L94.0439 51.7256L93.8887 51.4668L93.8369 50.6924L93.8887 49.4014H93.2676V48.8848H93.8887V48.2129L94.3037 48.0586H94.5107V48.8848ZM6.8877 48.9883L7.19824 49.2979L7.30176 49.7627V51.7773L7.25 51.8291H6.62891L6.57715 49.918L6.37012 49.5049L6.21484 49.4014H5.74805L5.4375 49.5566L5.23047 49.8662L5.17871 50.124V51.7773L5.12695 51.8291H4.50586V48.8848H5.17871L5.23047 49.2461L5.59277 48.9365L5.95508 48.833H6.47363L6.8877 48.9883ZM8.90723 49.0918L8.85547 51.8291H8.23438L8.18262 51.7773V48.8848H8.85547L8.90723 49.0918ZM10.3574 49.2979L10.9268 51.1055L11.0303 51.3125L11.3408 50.2793L11.7559 48.9883L12.0146 48.8848H12.584L12.4287 49.3496L11.5996 51.3125L11.3926 51.7256L11.2891 51.8291H10.668L10.5127 51.7256L9.8916 50.1758L9.4248 48.9883V48.8848H10.2021L10.3574 49.2979ZM18.2803 48.8848V49.4531H17.8145L17.4521 49.6084L17.2451 49.8662L17.1416 50.124L17.0898 51.7773L17.0381 51.8291H16.4678L16.416 51.7773V48.9365L16.4678 48.8848H17.0898L17.1416 48.9365V49.3496H17.2451L17.3486 49.1436L17.5557 48.9365L17.8662 48.833H18.1768L18.2803 48.8848ZM22.2686 51.7773L22.2168 51.8291H21.6475L21.5957 51.5703V48.8848H22.2686V51.7773ZM47.9023 51.7773L47.8506 51.8291H47.2295L47.1777 49.8145V48.9365L47.2295 48.8848H47.9023V51.7773ZM55.1006 48.9883L55.3086 49.1943L55.4639 49.5566L55.5156 49.8662V51.7773L55.4639 51.8291H54.8418L54.79 51.6221V50.124L54.6865 49.6592L54.4277 49.4014L54.1689 49.3496L53.7031 49.5049L53.4961 49.7627L53.4434 49.8662L53.3916 51.7773L53.3398 51.8291H52.7188L52.667 51.7773V48.9883L52.9258 48.8848H53.3398L53.3916 49.2461L53.7031 49.04L53.9102 48.8848L54.1172 48.833H54.7383L55.1006 48.9883ZM60.4346 47.4902V51.7773L60.3828 51.8291H59.7617L59.71 51.5703V47.542L59.8135 47.4385H60.3828L60.4346 47.4902ZM78.7158 48.8848V49.4014L77.9385 49.5566L77.7314 49.8145L77.6279 49.9697L77.5762 51.7256L77.5244 51.8291H76.9033L76.8516 51.7773V48.9365L76.9033 48.8848H77.4209L77.5762 48.9883V49.2979L77.9902 48.9365L78.043 48.8848L78.5088 48.833L78.7158 48.8848ZM79.959 48.9365V51.7773L79.9072 51.8291H79.2334V48.8848H79.9072L79.959 48.9365ZM83.2734 49.04L83.4805 49.2979L83.6875 49.1943L83.998 48.9365L84.2568 48.833H84.8789L85.2412 48.9883L85.5 49.2979L85.6035 49.6084V51.7773L85.5518 51.8291H84.9824L84.9307 51.7773V50.0215L84.8271 49.6592L84.5674 49.4014L84.2568 49.3496L83.9463 49.5049L83.7393 49.8145L83.6357 50.3311L83.584 51.8291H82.9619L82.9102 51.7773L82.8584 49.8145L82.6514 49.5049L82.3408 49.3496L81.9268 49.4531L81.668 49.8662L81.6162 50.124L81.5645 51.8291H80.8906V48.8848H81.5127L81.5645 48.9365V49.2461L81.875 49.04L82.2891 48.833H82.9619L83.2734 49.04ZM92.3877 49.04L92.6465 49.3496L92.6982 49.5049L92.75 50.0732V51.7773L92.6982 51.8291H92.0762L92.0244 51.7773V49.9697L91.8691 49.5566L91.6621 49.4014H91.1445L90.9375 49.5049L90.6787 49.918L90.627 51.416V51.7773L90.5752 51.8291H89.9531L89.9014 51.6738V48.8848H90.5752L90.627 49.1436L90.6787 49.2461L91.041 48.9365L91.3516 48.833H91.9727L92.3877 49.04ZM99.9482 51.8291H99.3271L99.2754 51.7773V47.4902L99.6895 47.4385H99.9482V51.8291ZM37.0273 47.7998L37.7529 48.833L38.5293 49.9697L39.0986 50.7959L39.1504 50.8477V47.748L39.2021 47.6963H39.8242L39.876 47.748V51.7256L39.8242 51.8281H39.1504L38.8398 51.5703L38.0635 50.4336L37.4414 49.5557L36.8203 48.626L36.7686 51.8281H36.0957L36.0439 47.8516L36.0957 47.6963H36.7686L37.0273 47.7998ZM65.6133 47.748V48.2129L65.5615 48.2646H63.9561L63.9043 49.4531H65.458L65.5098 49.6074L65.458 50.0205H63.9043V51.3125H65.665L65.7168 51.3633V51.8281H63.2832L63.2314 51.7773V47.6963H65.5615L65.6133 47.748ZM27.7578 50.5381L27.499 50.7441V51.1055L27.6543 51.3643L27.9131 51.5186L28.2236 51.4668L28.5859 51.2607L28.8447 50.9512L28.8965 50.4346L28.8447 50.3828H28.4824L27.7578 50.5381ZM41.6885 50.4863L41.3779 50.6924L41.2744 50.8477L41.3262 51.209L41.6367 51.4668L41.8438 51.5186L42.3096 51.3125L42.6719 50.9512L42.7246 50.5381L42.6201 50.3828H42.2578L41.6885 50.4863ZM57.0693 50.5381L56.8096 50.7441L56.8613 51.209L57.1211 51.4668L57.3799 51.5186L57.8975 51.2607L58.1562 50.9512L58.208 50.5381L58.1562 50.3828H57.7422L57.0693 50.5381ZM31.1758 49.5557L30.917 49.9697L30.8652 50.1758V50.6406L31.0205 51.002L31.2793 51.3125L31.6934 51.4668L32.1592 51.3125L32.4189 51.1055L32.5742 50.7959L32.626 50.4854V50.0723L32.4707 49.6592L32.1592 49.4014L32.0557 49.3496H31.4863L31.1758 49.5557ZM96.6338 50.5381L96.375 50.6924L96.3232 51.0029L96.4785 51.3125L96.6855 51.4668H97.0479L97.4629 51.209L97.6699 50.9512L97.7217 50.8477V50.4346L97.6699 50.3828H97.3584L96.6338 50.5381ZM49.7148 49.5049L49.5078 49.7627L49.3525 50.1758V50.6406L49.5596 51.0537L49.8184 51.3125L50.1299 51.416H50.4922L50.9062 51.209L51.165 50.8994L51.2168 50.7441V50.0215L51.0615 49.6592L50.751 49.4014L50.5957 49.3496H50.0254L49.7148 49.5049ZM70.585 49.5566L70.3779 49.8662L70.3262 50.0215V50.8477L70.5332 51.1572L70.8438 51.3643L71.3105 51.416L71.7246 51.209L71.9316 50.8994L72.0352 50.4863V50.0215L71.8799 49.6592L71.5693 49.4014L71.4658 49.3496H70.9482L70.585 49.5566ZM24.1328 49.4531L23.873 49.7627L23.7178 50.2275V50.6406L23.873 51.0537L24.1328 51.3125L24.3398 51.415H24.8057L25.1162 51.209L25.4268 50.8477L25.4785 50.5889V50.124L25.3232 49.6592L25.0127 49.4014L24.5986 49.2979L24.1328 49.4531ZM13.7754 49.5049L13.5684 49.8145L13.5166 50.0732L13.9307 50.124L15.0703 50.0732L15.0176 49.7109L14.8105 49.4014L14.4482 49.2461H14.293L13.7754 49.5049ZM74.2617 49.4531L74.0029 49.8662V50.0732L74.2617 50.124H75.2979L75.5049 50.0732L75.4014 49.6084L75.1943 49.3496L74.9873 49.2461H74.6758L74.2617 49.4531ZM87.3643 49.4531L87.1055 49.7627L87.002 50.0215L87.0537 50.0732H88.5547L88.5029 49.7109L88.2959 49.4014L87.9854 49.2461H87.7266L87.3643 49.4531ZM8.95898 47.6963L8.90723 48.1094L8.80371 48.2129H8.33789L8.18262 48.0586L8.13086 47.6963L8.28613 47.542H8.80371L8.95898 47.6963ZM22.3203 47.6445V48.0068L22.2686 48.1611L22.165 48.2129H21.75L21.543 48.0068V47.6963L21.6982 47.542H22.165L22.3203 47.6445ZM47.9541 47.5938V48.0068L47.8506 48.2129H47.333L47.1777 48.0586V47.6445L47.2812 47.542H47.8506L47.9541 47.5938ZM79.959 47.5938V48.0586L79.8555 48.2129H79.4404L79.2334 48.1094L79.1816 47.6445L79.3369 47.542H79.8037L79.959 47.5938ZM2.07129 35.4004L2.12305 40.5137L2.27832 40.9785L2.74512 41.3916L3.31445 41.5977H4.09082L4.66113 41.3916L5.0752 41.0811L5.28223 40.7715L5.33398 40.3584L5.38574 35.4004L5.4375 35.3486H7.40527L7.50879 35.4521V36.7432L7.45703 40.875L7.25 41.5977L6.93945 42.166L6.52539 42.6826L6.00684 43.0957L5.4375 43.4053L4.86816 43.6123L4.29785 43.7158H3.10742L2.38184 43.5605L1.76074 43.3027L1.19141 42.8887L0.724609 42.4238L0.362305 41.8564L0.155273 41.3916L0.0517578 40.9785L0 39.8418V35.5547L0.0517578 35.3486H1.96777L2.07129 35.4004ZM18.4873 35.6582L19.0059 36.123L19.4199 36.4844L19.9375 36.9492L20.3516 37.3115L21.0254 37.9307L21.6465 38.499L22.3721 39.1191L22.9414 39.584L22.9932 35.4004L23.0449 35.3486H25.0645L25.1162 35.4004V43.457L25.0127 43.6641L24.8574 43.7158L24.4434 43.5088L23.666 42.7861L23.252 42.4238L22.7344 41.959L22.1641 41.4434L21.75 41.0811L21.1289 40.5137L20.5596 40.0488L19.9375 39.4805L19.7822 39.4287V43.6123L19.627 43.6641H17.7627L17.6592 43.5605V35.5039L17.7109 35.3486H18.0215L18.4873 35.6582ZM77.0586 35.4512L77.835 35.7617L78.6123 36.2266L79.0264 36.5879L79.0781 36.7432L78.7158 37.1562L78.457 37.4658L78.042 37.8271L77.7832 38.0859L77.5244 38.0342L77.0068 37.6729L76.4893 37.4658L76.2295 37.4141H75.2461L74.7285 37.5693L74.1582 37.8789L73.6406 38.3955L73.4336 38.8086L73.3301 39.1699V39.9453L73.5371 40.5127L74.0029 41.0293L74.5723 41.3906L75.2461 41.5977H76.2295L76.9033 41.3906L77.4209 41.0811L77.6797 40.875L78.042 41.1846L78.5605 41.7012L78.8711 41.959L79.0781 42.2178L79.0264 42.4756L78.5088 42.8887L77.6797 43.3535L77.1104 43.5605L76.2295 43.7148H75.2979L74.5723 43.6123L73.6406 43.3018L72.8633 42.8369L72.3457 42.3721L71.8799 41.8555L71.4658 41.1328L71.207 40.3066L71.1553 39.9961V39.0156L71.3623 38.1377L71.7764 37.3105L72.1904 36.7939L72.708 36.2783L73.3818 35.8643L73.8994 35.6064L74.5723 35.3994L75.2461 35.2969H76.1777L77.0586 35.4512ZM55.1523 35.5547L55.6191 36.3301L56.3955 37.4658L56.5508 37.5176L57.2764 36.3818L57.8975 35.4521L58.001 35.3486H60.1758L60.2793 35.4004L60.1758 35.6064L59.5029 36.7432L59.0889 37.4141L58.3115 38.7061L57.8975 39.4287L57.9492 39.6865L58.415 40.5137L58.9336 41.3398L59.8135 42.7861L60.2275 43.5088V43.6641H58.0527L57.7939 43.4053L57.2764 42.6309L56.7578 41.8047L56.5508 41.4951H56.3955L55.8779 42.2695L55.1006 43.5088L54.8936 43.6641H52.7188L52.667 43.5605L53.4961 42.166L54.1172 41.1328L54.9971 39.6865L55.0488 39.4805L54.79 38.9639L53.9102 37.5176L53.2363 36.3818L52.7188 35.5547V35.3486H54.9453L55.1523 35.5547ZM43.2422 35.3486V36.8975L43.1904 37.2588L43.0869 37.3105H39.6689V38.4473H42.0508L42.4131 38.499V40.4102L42.2578 40.4609H39.6689V41.5459L43.1904 41.5977L43.2422 41.6494V43.5088L42.8799 43.6123H37.5459L37.4941 43.5605V35.3486L37.5459 35.2969H43.1387L43.2422 35.3486ZM96.2197 35.8135L96.6338 36.5879L97.3066 38.0342L97.9805 39.377L98.5498 40.5654L99.3789 42.2695L99.9482 43.5088L99.8965 43.6123H97.8252L97.5654 43.1992L97.2031 42.4756V42.373H94.4072L94.252 42.5273L93.8369 43.3535L93.6299 43.6123H91.5586L91.6104 43.3027L92.5947 41.2363L93.6299 39.1191L94.459 37.3633L95.1318 35.9688L95.4424 35.4521L95.5459 35.3486H95.9092L96.2197 35.8135ZM95.2871 40.5137L95.3389 40.668H96.168L96.0127 40.2031L95.8047 39.7383L95.7012 39.6865L95.2871 40.5137ZM64.6299 0.129883V6.27539H67.5293L68.7207 6.32715L68.7725 6.37891V8.3418H71.207L72.8643 8.39355L72.916 8.44531V10.4072H79.1299V8.54883L79.1816 8.39355L80.7871 8.3418H87.7783L89.5391 8.39355L89.5908 8.44531V10.4072H91.6104L95.8057 10.459L95.8574 10.5107V12.4736H97.6699L99.9482 12.5254L100 12.6289V17.1221L99.9482 18.6709L99.6895 18.7227L97.9287 18.7744L97.877 22.8027L97.8252 22.8545L95.8574 22.9062V29.001L95.4941 29.1045H94.0967L93.7334 29.0527L93.6816 24.9727V18.7744H89.6426L89.5908 26.9346L89.5391 26.9863H87.4678L87.416 16.709L85.6035 16.6572L85.3965 16.5537V14.6426L83.3252 14.5908V29.0527L82.2891 29.1045H81.46L81.2529 29.0527L81.2012 28.9492L81.1494 20.8408H77.1104L77.0586 26.9863H75.0391L74.9873 26.8838L74.9355 16.709L73.0713 16.6572L72.916 16.6055L72.8643 14.6943L72.2939 14.6426L70.8438 14.5908V16.5537L70.792 16.6055L69.8604 16.6572H68.7725V24.8691L68.7207 24.9209L67.9961 24.9727H64.6299V28.9492L64.5781 29.0527L64.1641 29.1045H62.8691L62.5068 29.0527L62.4551 28.3809V16.709L60.4346 16.6572V18.6201L60.3828 18.6709L59.7617 18.7227H58.3633V20.0654L58.3115 26.9863H56.2402L56.1885 25.9023V16.709L52.0977 16.6572V29.0527L51.4238 29.1045H50.2852L49.9736 29.001L49.9219 27.0898L48.3691 27.0381L47.9541 26.9863L47.9023 26.7285V18.7227H43.7598V20.7373L43.6562 20.7891H41.6885L41.6367 29.0527L39.876 29.1045L39.5654 29.0527L39.5137 18.7744L37.5449 18.7227L37.4932 18.6709V16.6572H35.4219L35.3701 18.6709L34.8008 18.7227H33.3506V24.8691L33.2988 24.9209H31.2793L31.2275 23.2168V20.8408H27.1357L27.084 29.0527L26.6699 29.1045H25.5312L25.0645 29.0527L25.0127 29.001L24.9609 22.9062L22.9414 22.8545L22.8896 22.7002V20.8408L20.8701 20.7891V25.0244L20.8184 26.9863L19.0059 27.0381L18.7988 26.9863L18.7471 26.832V18.7227H14.6035V29.0527L13.6201 29.1045H12.7393L12.5322 29.0527V16.709L10.4609 16.6572L10.4092 18.6709L10.1504 18.7227L8.38965 18.7744L8.33789 24.9209L7.76758 24.9727H6.37012L6.2666 24.6621V20.8408H2.1748L2.12305 29.0527L1.8125 29.1045L0.0517578 29.0527L0 28.7939V12.6289L0.0517578 12.5254H4.14258L4.19434 12.5771V14.5908H8.33789V12.5771L8.38965 12.5254L11.1338 12.4736H16.6758V10.5107L16.7275 10.459L19.7822 10.4072H22.2168L24.9609 10.459L25.0127 10.5107V12.4736H33.2471L33.2988 10.5625L33.3506 10.459L37.4932 10.4072V8.39355L38.7881 8.3418H41.6367V6.37891L41.6885 6.32715L42.6719 6.27539H48.835L49.9736 6.32715L50.0264 6.43066V8.3418H54.1172V6.6377L54.1689 6.32715L55.4639 6.27539H60.3828V2.29883L60.5391 2.14355L62.4033 2.09277L62.4551 0.129883L62.5586 0.078125H64.2676L64.6299 0.129883Z" fill="#F0F2F7"/>
</svg>
