<svg width="40" height="40" viewBox="0 0 40 40" fill="none" xmlns="http://www.w3.org/2000/svg">
<g clip-path="url(#clip0_3177_2578)">
<path d="M40 20.1217C40 30.1033 32.6767 38.3783 23.1167 39.88V25.9417H27.765L28.65 20.175H23.1167V16.4333C23.1167 14.855 23.89 13.3183 26.3667 13.3183H28.8817V8.40834C28.8817 8.40834 26.5983 8.01834 24.4167 8.01834C19.86 8.01834 16.8833 10.78 16.8833 15.7783V20.1733H11.8183V25.94H16.8833V39.8783C7.325 38.375 0 30.1017 0 20.1217C0 9.07668 8.955 0.121674 20 0.121674C31.045 0.121674 40 9.07501 40 20.1217Z" fill="#F0F2F7"/>
</g>
<defs>
<clipPath id="clip0_3177_2578">
<rect width="40" height="40" fill="white"/>
</clipPath>
</defs>
</svg>
