<svg width="76" height="76" viewBox="0 0 76 76" fill="none" xmlns="http://www.w3.org/2000/svg">
<path d="M14.25 69.6668C12.9833 69.6668 11.875 69.1918 10.925 68.2418C9.975 67.2918 9.5 66.1835 9.5 64.9168V15.8335C9.5 14.5668 9.975 13.4585 10.925 12.5085C11.875 11.5585 12.9833 11.0835 14.25 11.0835H19.3958V6.3335H24.5417V11.0835H51.4583V6.3335H56.6042V11.0835H61.75C63.0167 11.0835 64.125 11.5585 65.075 12.5085C66.025 13.4585 66.5 14.5668 66.5 15.8335V64.9168C66.5 66.1835 66.025 67.2918 65.075 68.2418C64.125 69.1918 63.0167 69.6668 61.75 69.6668H14.25ZM14.25 64.9168H61.75V30.8752H14.25V64.9168ZM14.25 26.1252H61.75V15.8335H14.25V26.1252ZM38 44.3335C37.1028 44.3335 36.3507 44.03 35.7437 43.4231C35.1368 42.8161 34.8333 42.0641 34.8333 41.1668C34.8333 40.2696 35.1368 39.5175 35.7437 38.9106C36.3507 38.3036 37.1028 38.0002 38 38.0002C38.8972 38.0002 39.6493 38.3036 40.2562 38.9106C40.8632 39.5175 41.1667 40.2696 41.1667 41.1668C41.1667 42.0641 40.8632 42.8161 40.2562 43.4231C39.6493 44.03 38.8972 44.3335 38 44.3335ZM25.3333 44.3335C24.4361 44.3335 23.684 44.03 23.0771 43.4231C22.4701 42.8161 22.1667 42.0641 22.1667 41.1668C22.1667 40.2696 22.4701 39.5175 23.0771 38.9106C23.684 38.3036 24.4361 38.0002 25.3333 38.0002C26.2306 38.0002 26.9826 38.3036 27.5896 38.9106C28.1965 39.5175 28.5 40.2696 28.5 41.1668C28.5 42.0641 28.1965 42.8161 27.5896 43.4231C26.9826 44.03 26.2306 44.3335 25.3333 44.3335ZM50.6667 44.3335C49.7694 44.3335 49.0174 44.03 48.4104 43.4231C47.8035 42.8161 47.5 42.0641 47.5 41.1668C47.5 40.2696 47.8035 39.5175 48.4104 38.9106C49.0174 38.3036 49.7694 38.0002 50.6667 38.0002C51.5639 38.0002 52.316 38.3036 52.9229 38.9106C53.5299 39.5175 53.8333 40.2696 53.8333 41.1668C53.8333 42.0641 53.5299 42.8161 52.9229 43.4231C52.316 44.03 51.5639 44.3335 50.6667 44.3335ZM38 57.0002C37.1028 57.0002 36.3507 56.6967 35.7437 56.0897C35.1368 55.4828 34.8333 54.7307 34.8333 53.8335C34.8333 52.9363 35.1368 52.1842 35.7437 51.5772C36.3507 50.9703 37.1028 50.6668 38 50.6668C38.8972 50.6668 39.6493 50.9703 40.2562 51.5772C40.8632 52.1842 41.1667 52.9363 41.1667 53.8335C41.1667 54.7307 40.8632 55.4828 40.2562 56.0897C39.6493 56.6967 38.8972 57.0002 38 57.0002ZM25.3333 57.0002C24.4361 57.0002 23.684 56.6967 23.0771 56.0897C22.4701 55.4828 22.1667 54.7307 22.1667 53.8335C22.1667 52.9363 22.4701 52.1842 23.0771 51.5772C23.684 50.9703 24.4361 50.6668 25.3333 50.6668C26.2306 50.6668 26.9826 50.9703 27.5896 51.5772C28.1965 52.1842 28.5 52.9363 28.5 53.8335C28.5 54.7307 28.1965 55.4828 27.5896 56.0897C26.9826 56.6967 26.2306 57.0002 25.3333 57.0002ZM50.6667 57.0002C49.7694 57.0002 49.0174 56.6967 48.4104 56.0897C47.8035 55.4828 47.5 54.7307 47.5 53.8335C47.5 52.9363 47.8035 52.1842 48.4104 51.5772C49.0174 50.9703 49.7694 50.6668 50.6667 50.6668C51.5639 50.6668 52.316 50.9703 52.9229 51.5772C53.5299 52.1842 53.8333 52.9363 53.8333 53.8335C53.8333 54.7307 53.5299 55.4828 52.9229 56.0897C52.316 56.6967 51.5639 57.0002 50.6667 57.0002Z" fill="#022873"/>
</svg>
