<svg width="76" height="76" viewBox="0 0 76 76" fill="none" xmlns="http://www.w3.org/2000/svg">
<path d="M29.6875 40.7708H34.4375V31.2708H42.3542V40.7708H47.1042V26.125L38.3958 20.3458L29.6875 26.125V40.7708ZM38.3958 63.0167C45.4153 56.6306 50.6007 50.8382 53.9521 45.6396C57.3035 40.441 58.9792 35.8625 58.9792 31.9042C58.9792 25.6764 56.9868 20.5833 53.0021 16.625C49.0174 12.6667 44.1486 10.6875 38.3958 10.6875C32.6431 10.6875 27.7743 12.6667 23.7896 16.625C19.8049 20.5833 17.8125 25.6764 17.8125 31.9042C17.8125 35.8625 19.5278 40.441 22.9583 45.6396C26.3889 50.8382 31.5347 56.6306 38.3958 63.0167ZM38.3958 69.2708C29.8986 62.0403 23.5521 55.3243 19.3563 49.1229C15.1604 42.9215 13.0625 37.1819 13.0625 31.9042C13.0625 23.9875 15.609 17.6806 20.7021 12.9833C25.7951 8.28611 31.6931 5.9375 38.3958 5.9375C45.0986 5.9375 50.9965 8.28611 56.0896 12.9833C61.1826 17.6806 63.7292 23.9875 63.7292 31.9042C63.7292 37.1819 61.6313 42.9215 57.4354 49.1229C53.2396 55.3243 46.8931 62.0403 38.3958 69.2708Z" fill="#022873"/>
</svg>
