<svg width="40" height="40" viewBox="0 0 40 40" fill="none" xmlns="http://www.w3.org/2000/svg">
<path d="M33 34.9717L22.1946 24.1663C21.3612 24.8699 20.394 25.4208 19.2929 25.8192C18.1918 26.2172 17.0201 26.4163 15.7779 26.4163C12.7657 26.4163 10.2163 25.3722 8.12958 23.2842C6.04319 21.1964 5 18.6664 5 15.6942C5 12.722 6.04403 10.1918 8.13208 8.10376C10.2199 6.01571 12.7546 4.97168 15.7363 4.97168C18.7176 4.97168 21.2476 6.01571 23.3263 8.10376C25.4051 10.1918 26.4446 12.7233 26.4446 15.6983C26.4446 16.8992 26.2501 18.0506 25.8612 19.1525C25.4724 20.2542 24.9075 21.2681 24.1667 22.1942L35 32.9717L33 34.9717ZM15.75 23.6383C17.9492 23.6383 19.8183 22.8629 21.3575 21.3121C22.8969 19.7613 23.6667 17.8886 23.6667 15.6942C23.6667 13.4997 22.8969 11.627 21.3575 10.0758C19.8183 8.52501 17.9492 7.7496 15.75 7.7496C13.5356 7.7496 11.6532 8.52501 10.1029 10.0758C8.55292 11.627 7.77792 13.4997 7.77792 15.6942C7.77792 17.8886 8.55292 19.7613 10.1029 21.3121C11.6532 22.8629 13.5356 23.6383 15.75 23.6383Z" fill="#B5C0D6"/>
</svg>
