<svg width="40" height="40" viewBox="0 0 40 40" fill="none" xmlns="http://www.w3.org/2000/svg">
<path d="M35 11.5833V32.2221C35 32.9721 34.7246 33.6226 34.1738 34.1738C33.6226 34.7246 32.9721 35 32.2221 35H7.77792C7.02792 35 6.37736 34.7246 5.82625 34.1738C5.27542 33.6226 5 32.9721 5 32.2221V7.77792C5 7.02792 5.27542 6.37736 5.82625 5.82625C6.37736 5.27542 7.02792 5 7.77792 5H28.4167L35 11.5833ZM32.2221 12.8054L27.1946 7.77792H7.77792V32.2221H32.2221V12.8054ZM19.9933 29.8613C21.2569 29.8613 22.3332 29.4189 23.2221 28.5342C24.111 27.6497 24.5554 26.5757 24.5554 25.3121C24.5554 24.0485 24.1132 22.9722 23.2288 22.0833C22.3443 21.1944 21.2703 20.75 20.0067 20.75C18.7431 20.75 17.6668 21.1922 16.7779 22.0767C15.889 22.9614 15.4446 24.0356 15.4446 25.2992C15.4446 26.5628 15.8868 27.639 16.7713 28.5279C17.6557 29.4168 18.7297 29.8613 19.9933 29.8613ZM9.80542 16H24.75V9.80542H9.80542V16ZM7.77792 12.8054V32.2221V7.77792V12.8054Z" fill="#B5C0D6"/>
</svg>
