<svg width="40" height="40" viewBox="0 0 40 40" fill="none" xmlns="http://www.w3.org/2000/svg">
<path d="M11.9446 14.4444V11.6665H35V14.4444H11.9446ZM11.9446 21.3886V18.6111H35V21.3886H11.9446ZM11.9446 28.3332V25.5553H35V28.3332H11.9446ZM6.38875 14.4444C6.00931 14.4444 5.68292 14.3078 5.40958 14.0344C5.13653 13.7614 5 13.4304 5 13.0415C5 12.6526 5.13653 12.3262 5.40958 12.0623C5.68292 11.7984 6.01403 11.6665 6.40292 11.6665C6.79181 11.6665 7.11819 11.7996 7.38208 12.0657C7.64597 12.3321 7.77792 12.6619 7.77792 13.0553C7.77792 13.435 7.64472 13.7614 7.37833 14.0344C7.11222 14.3078 6.78236 14.4444 6.38875 14.4444ZM6.38875 21.3886C6.00931 21.3886 5.68292 21.2521 5.40958 20.979C5.13653 20.7059 5 20.375 5 19.9861C5 19.5972 5.13653 19.2708 5.40958 19.0069C5.68292 18.743 6.01403 18.6111 6.40292 18.6111C6.79181 18.6111 7.11819 18.7441 7.38208 19.0103C7.64597 19.2764 7.77792 19.6062 7.77792 19.9998C7.77792 20.3796 7.64472 20.7059 7.37833 20.979C7.11222 21.2521 6.78236 21.3886 6.38875 21.3886ZM6.38875 28.3332C6.00931 28.3332 5.68292 28.1966 5.40958 27.9236C5.13653 27.6503 5 27.3191 5 26.9303C5 26.5414 5.13653 26.215 5.40958 25.9511C5.68292 25.6872 6.01403 25.5553 6.40292 25.5553C6.79181 25.5553 7.11819 25.6885 7.38208 25.9548C7.64597 26.221 7.77792 26.5508 7.77792 26.9444C7.77792 27.3239 7.64472 27.6503 7.37833 27.9236C7.11222 28.1966 6.78236 28.3332 6.38875 28.3332Z" fill="#B5C0D6"/>
</svg>
