<svg width="40" height="40" viewBox="0 0 40 40" fill="none" xmlns="http://www.w3.org/2000/svg">
<path d="M7.77792 35C7.02792 35 6.37736 34.7246 5.82625 34.1738C5.27542 33.6226 5 32.9721 5 32.2221V7.77792C5 7.02792 5.27542 6.37736 5.82625 5.82625C6.37736 5.27542 7.02792 5 7.77792 5H23.7221V7.77792H7.77792V32.2221H32.2221V16.2779H35V32.2221C35 32.9721 34.7246 33.6226 34.1738 34.1738C33.6226 34.7246 32.9721 35 32.2221 35H7.77792ZM13.3613 28.4167V25.6388H26.6667V28.4167H13.3613ZM13.3613 23.2221V20.4446H26.6667V23.2221H13.3613ZM13.3613 18.0279V15.25H26.6667V18.0279H13.3613ZM28.6667 14.8888V11.3333H25.1112V8.55542H28.6667V5H31.4446V8.55542H35V11.3333H31.4446V14.8888H28.6667Z" fill="#B5C0D6"/>
</svg>
