<svg width="40" height="40" viewBox="0 0 40 40" fill="none" xmlns="http://www.w3.org/2000/svg">
<path d="M19.9997 36.6663C17.6941 36.6663 15.5275 36.2288 13.4997 35.3538C11.4719 34.4788 9.70801 33.2913 8.20801 31.7913C6.70801 30.2913 5.52051 28.5275 4.64551 26.4997C3.77051 24.4719 3.33301 22.3052 3.33301 19.9997C3.33301 17.6941 3.77051 15.5275 4.64551 13.4997C5.52051 11.4719 6.70801 9.70801 8.20801 8.20801C9.70801 6.70801 11.4719 5.52051 13.4997 4.64551C15.5275 3.77051 17.6941 3.33301 19.9997 3.33301C22.3052 3.33301 24.4719 3.77051 26.4997 4.64551C28.5275 5.52051 30.2913 6.70801 31.7913 8.20801C33.2913 9.70801 34.4788 11.4719 35.3538 13.4997C36.2288 15.5275 36.6663 17.6941 36.6663 19.9997C36.6663 22.3052 36.2288 24.4719 35.3538 26.4997C34.4788 28.5275 33.2913 30.2913 31.7913 31.7913C30.2913 33.2913 28.5275 34.4788 26.4997 35.3538C24.4719 36.2288 22.3052 36.6663 19.9997 36.6663ZM18.2497 33.833V30.4718C17.2961 30.4718 16.4881 30.1223 15.8259 29.4234C15.164 28.7243 14.833 27.8979 14.833 26.9443V25.1663L6.47176 16.8051C6.35148 17.3423 6.2612 17.8748 6.20092 18.4026C6.14092 18.9304 6.11092 19.4627 6.11092 19.9997C6.11092 23.5275 7.26134 26.6108 9.56218 29.2497C11.863 31.8886 14.7588 33.4163 18.2497 33.833ZM30.2497 29.4163C31.4441 28.1108 32.3493 26.6501 32.9651 25.0343C33.5806 23.4187 33.8884 21.7405 33.8884 19.9997C33.8884 17.1294 33.0991 14.5183 31.5205 12.1663C29.9419 9.8144 27.8331 8.10148 25.1943 7.02759V7.74968C25.1943 8.70329 24.8631 9.52968 24.2009 10.2288C23.539 10.928 22.7312 11.2776 21.7776 11.2776H18.2497V14.8051C18.2497 15.2773 18.0715 15.6686 17.7151 15.9788C17.3584 16.2891 16.944 16.4443 16.4718 16.4443H13.0551V19.9997H23.5551C24.0273 19.9997 24.4186 20.1733 24.7288 20.5205C25.0391 20.8677 25.1943 21.2775 25.1943 21.7497V26.9443H26.9443C27.722 26.9443 28.4118 27.1734 29.0134 27.6318C29.6154 28.0901 30.0275 28.685 30.2497 29.4163Z" fill="#B5C0D6"/>
</svg>
