<svg width="40" height="40" viewBox="0 0 40 40" fill="none" xmlns="http://www.w3.org/2000/svg">
<path d="M10.0548 30L13.9439 23.2779C13.8512 23.2963 13.7492 23.3101 13.6381 23.3196C13.527 23.3288 13.4252 23.3333 13.3327 23.3333C11.4993 23.3333 9.9299 22.6806 8.62435 21.375C7.31879 20.0694 6.66602 18.5 6.66602 16.6667C6.66602 14.8333 7.31879 13.2639 8.62435 11.9583C9.9299 10.6528 11.4993 10 13.3327 10C15.166 10 16.7355 10.6528 18.041 11.9583C19.3466 13.2639 19.9993 14.8333 19.9993 16.6667C19.9993 17.2686 19.923 17.8467 19.7702 18.4008C19.6174 18.9553 19.3882 19.4883 19.0827 20L13.3327 30H10.0548ZM25.0548 30L28.9439 23.2779C28.8512 23.2963 28.7492 23.3101 28.6381 23.3196C28.527 23.3288 28.4252 23.3333 28.3327 23.3333C26.4993 23.3333 24.9299 22.6806 23.6243 21.375C22.3188 20.0694 21.666 18.5 21.666 16.6667C21.666 14.8333 22.3188 13.2639 23.6243 11.9583C24.9299 10.6528 26.4993 10 28.3327 10C30.166 10 31.7355 10.6528 33.041 11.9583C34.3466 13.2639 34.9993 14.8333 34.9993 16.6667C34.9993 17.2686 34.923 17.8467 34.7702 18.4008C34.6174 18.9553 34.3882 19.4883 34.0827 20L28.3327 30H25.0548ZM13.326 19.7221C14.173 19.7221 14.895 19.4257 15.4923 18.8329C16.0895 18.2401 16.3881 17.5203 16.3881 16.6733C16.3881 15.8264 16.0917 15.1043 15.4989 14.5071C14.9062 13.9099 14.1863 13.6112 13.3393 13.6112C12.4924 13.6112 11.7703 13.9076 11.1731 14.5004C10.5759 15.0932 10.2773 15.8131 10.2773 16.66C10.2773 17.5069 10.5737 18.229 11.1664 18.8263C11.7592 19.4235 12.4791 19.7221 13.326 19.7221ZM28.326 19.7221C29.173 19.7221 29.895 19.4257 30.4923 18.8329C31.0895 18.2401 31.3881 17.5203 31.3881 16.6733C31.3881 15.8264 31.0917 15.1043 30.4989 14.5071C29.9062 13.9099 29.1863 13.6112 28.3393 13.6112C27.4924 13.6112 26.7703 13.9076 26.1731 14.5004C25.5759 15.0932 25.2773 15.8131 25.2773 16.66C25.2773 17.5069 25.5737 18.229 26.1664 18.8263C26.7592 19.4235 27.4791 19.7221 28.326 19.7221Z" fill="#B5C0D6"/>
</svg>
