<svg width="40" height="40" viewBox="0 0 40 40" fill="none" xmlns="http://www.w3.org/2000/svg">
<path d="M10.0007 25.8332H24.4452V23.0553H10.0007V25.8332ZM27.2227 25.8332H30.0007V23.0553H27.2227V25.8332ZM10.0007 20.2778H12.7786V17.4998H10.0007V20.2778ZM15.5561 20.2778H30.0007V17.4998H15.5561V20.2778ZM6.1119 33.3332C5.3619 33.3332 4.71135 33.0578 4.16023 32.5069C3.6094 31.9558 3.33398 31.3053 3.33398 30.5553V9.44442C3.33398 8.69442 3.6094 8.04387 4.16023 7.49275C4.71135 6.94192 5.3619 6.6665 6.1119 6.6665H33.8894C34.6394 6.6665 35.29 6.94192 35.8411 7.49275C36.3919 8.04387 36.6673 8.69442 36.6673 9.44442V30.5553C36.6673 31.3053 36.3919 31.9558 35.8411 32.5069C35.29 33.0578 34.6394 33.3332 33.8894 33.3332H6.1119ZM6.1119 30.5553H33.8894V9.44442H6.1119V30.5553Z" fill="#B5C0D6"/>
</svg>
