<svg width="40" height="40" viewBox="0 0 40 40" fill="none" xmlns="http://www.w3.org/2000/svg">
<path d="M5 28.3332V11.6665H7.77792V18.6111H15V11.6665H17.7779V28.3332H15V21.3886H7.77792V28.3332H5ZM22.2221 28.3332V21.3886C22.2221 20.6247 22.4942 19.9708 23.0383 19.4269C23.5822 18.883 24.2361 18.6111 25 18.6111H32.2221V14.4444H22.2221V11.6665H32.2221C32.9907 11.6665 33.6458 11.9384 34.1875 12.4823C34.7292 13.0265 35 13.6805 35 14.4444V18.6111C35 19.375 34.7281 20.0289 34.1842 20.5728C33.64 21.1166 32.986 21.3886 32.2221 21.3886H25V25.5553H35V28.3332H22.2221Z" fill="#B5C0D6"/>
</svg>
