<svg width="76" height="76" viewBox="0 0 76 76" fill="none" xmlns="http://www.w3.org/2000/svg">
<path d="M28.5 7.9165V3.1665H47.5V7.9165H28.5ZM35.625 43.304H40.375V25.0957H35.625V43.304ZM38 69.5873C34.0944 69.5873 30.4132 68.8353 26.9562 67.3311C23.4993 65.8269 20.4778 63.7818 17.8917 61.1957C15.3056 58.6096 13.2604 55.588 11.7562 52.1311C10.2521 48.6741 9.5 44.9929 9.5 41.0873C9.5 37.1818 10.2521 33.5005 11.7562 30.0436C13.2604 26.5866 15.3056 23.5651 17.8917 20.979C20.4778 18.3929 23.4993 16.3478 26.9562 14.8436C30.4132 13.3394 34.0944 12.5873 38 12.5873C41.5361 12.5873 44.8611 13.1811 47.975 14.3686C51.0889 15.5561 53.8597 17.2054 56.2875 19.3165L60.325 15.279L63.65 18.604L59.6125 22.6415C61.5125 24.7526 63.1354 27.3123 64.4812 30.3207C65.8271 33.329 66.5 36.9179 66.5 41.0873C66.5 44.9929 65.7479 48.6741 64.2437 52.1311C62.7396 55.588 60.6944 58.6096 58.1083 61.1957C55.5222 63.7818 52.5007 65.8269 49.0437 67.3311C45.5868 68.8353 41.9056 69.5873 38 69.5873ZM38 64.8373C44.5972 64.8373 50.2049 62.5283 54.8229 57.9103C59.441 53.2922 61.75 47.6846 61.75 41.0873C61.75 34.4901 59.441 28.8825 54.8229 24.2644C50.2049 19.6464 44.5972 17.3373 38 17.3373C31.4028 17.3373 25.7951 19.6464 21.1771 24.2644C16.559 28.8825 14.25 34.4901 14.25 41.0873C14.25 47.6846 16.559 53.2922 21.1771 57.9103C25.7951 62.5283 31.4028 64.8373 38 64.8373Z" fill="#022873"/>
</svg>
