<svg width="40" height="40" viewBox="0 0 40 40" fill="none" xmlns="http://www.w3.org/2000/svg">
<path d="M13.3048 29.7222H26.6939V26.9448H13.3048V29.7222ZM13.3048 22.7781H26.6939V20.0002H13.3048V22.7781ZM9.44393 36.6668C8.69393 36.6668 8.04338 36.3914 7.49227 35.8406C6.94143 35.2895 6.66602 34.6389 6.66602 33.8889V6.11141C6.66602 5.36141 6.94143 4.71086 7.49227 4.15975C8.04338 3.60891 8.69393 3.3335 9.44393 3.3335H23.916L33.3327 12.7502V33.8889C33.3327 34.6389 33.0573 35.2895 32.5064 35.8406C31.9553 36.3914 31.3048 36.6668 30.5548 36.6668H9.44393ZM22.5273 14.0556V6.11141H9.44393V33.8889H30.5548V14.0556H22.5273Z" fill="#B5C0D6"/>
</svg>
