<svg width="40" height="40" viewBox="0 0 40 40" fill="none" xmlns="http://www.w3.org/2000/svg">
<g clip-path="url(#clip0_3177_2574)">
<path fill-rule="evenodd" clip-rule="evenodd" d="M34.105 5.81333C30.3616 2.06667 25.385 0.00166667 20.0833 0C9.1583 0 0.266637 8.89 0.261637 19.82C0.259971 23.3133 1.1733 26.7233 2.9083 29.73L0.0949707 40L10.6016 37.2433C13.4966 38.8233 16.7566 39.655 20.0733 39.6567H20.0816C31.005 39.6567 39.8983 30.765 39.9033 19.835C39.9066 14.54 37.8466 9.55833 34.105 5.81333ZM20.0833 36.3083H20.0766C17.12 36.3083 14.2216 35.5133 11.6916 34.0117L11.09 33.655L4.85497 35.29L6.51997 29.21L6.1283 28.5867C4.4783 25.9633 3.6083 22.9317 3.60997 19.82C3.6133 10.7367 11.005 3.34667 20.0916 3.34667C24.4916 3.34667 28.6283 5.06333 31.7383 8.17667C34.8483 11.2917 36.56 15.43 36.5583 19.8317C36.5533 28.9183 29.1633 36.3083 20.0833 36.3083ZM29.12 23.97C28.625 23.7217 26.19 22.5233 25.735 22.3583C25.2816 22.1933 24.9516 22.11 24.62 22.605C24.2883 23.1 23.3416 24.2167 23.0516 24.5483C22.7633 24.8783 22.4733 24.92 21.9783 24.6717C21.4833 24.4233 19.8866 23.9017 17.995 22.2133C16.5233 20.9 15.5283 19.2783 15.24 18.7817C14.9516 18.285 15.21 18.0183 15.4566 17.7717C15.68 17.55 15.9516 17.1933 16.2 16.9033C16.45 16.6167 16.5316 16.41 16.6983 16.0783C16.8633 15.7483 16.7816 15.4583 16.6566 15.21C16.5316 14.9633 15.5416 12.525 15.13 11.5333C14.7283 10.5667 14.32 10.6983 14.015 10.6833C13.7266 10.6683 13.3966 10.6667 13.065 10.6667C12.735 10.6667 12.1983 10.79 11.745 11.2867C11.2916 11.7833 10.0116 12.9817 10.0116 15.4183C10.0116 17.8567 11.7866 20.2117 12.0333 20.5417C12.28 20.8717 15.525 25.875 20.4933 28.02C21.675 28.53 22.5983 28.835 23.3166 29.0633C24.5033 29.44 25.5833 29.3867 26.4366 29.26C27.3883 29.1183 29.3666 28.0617 29.78 26.905C30.1933 25.7483 30.1933 24.755 30.0683 24.55C29.945 24.3417 29.615 24.2183 29.12 23.97Z" fill="#F0F2F7"/>
</g>
<defs>
<clipPath id="clip0_3177_2574">
<rect width="40" height="40" fill="white"/>
</clipPath>
</defs>
</svg>
